<svg xmlns="http://www.w3.org/2000/svg" version="1.1" xmlns:xlink="http://www.w3.org/1999/xlink" xmlns:svgjs="http://svgjs.dev/svgjs" width="1500" height="454" viewBox="0 0 1500 454"><g transform="matrix(1,0,0,1,-0.9090909090909918,-0.5027436672566523)"><svg viewBox="0 0 396 120" data-background-color="#ffffff" preserveAspectRatio="xMidYMid meet" height="454" width="1500" xmlns="http://www.w3.org/2000/svg" xmlns:xlink="http://www.w3.org/1999/xlink"><g id="tight-bounds" transform="matrix(1,0,0,1,0.2400000000000091,0.13288378870220185)"><svg viewBox="0 0 395.52 119.7342324225956" height="119.7342324225956" width="395.52"><g><svg viewBox="0 0 594.4516108468395 179.95602583212437" height="119.7342324225956" width="395.52"><g transform="matrix(1,0,0,1,198.93161084683942,49.78844469499137)"><svg viewBox="0 0 395.52 80.37913644214163" height="80.37913644214163" width="395.52"><g id="textblocktransform"><svg viewBox="0 0 395.52 80.37913644214163" height="80.37913644214163" width="395.52" id="textblock"><g><svg viewBox="0 0 395.52 80.37913644214163" height="80.37913644214163" width="395.52"><g transform="matrix(1,0,0,1,0,0)"><svg width="395.52" viewBox="1.1 -34.55 173.68 35.3" height="80.37913644214163" data-palette-color="#605fdc"><path d="M6-34.55L22.4-34.55 21-29.8 11.6-29.8 10.1-19.25 18.45-19.25 17.7-14.5 9.45-14.5 7.4 0 1.1 0 6-34.55ZM29.95 0.75Q25.8 0.75 23.5-1.93 21.2-4.6 21.2-9.4L21.2-9.4Q21.2-13.8 22.57-17.85 23.95-21.9 26.82-24.53 29.7-27.15 33.95-27.15L33.95-27.15Q38.1-27.15 40.37-24.53 42.65-21.9 42.65-17.05L42.65-17.05Q42.65-12.7 41.3-8.63 39.95-4.55 37.07-1.9 34.2 0.75 29.95 0.75L29.95 0.75ZM30.35-3.95Q32.55-3.95 33.92-6.23 35.3-8.5 35.9-11.68 36.5-14.85 36.5-17.8L36.5-17.8Q36.5-22.5 33.55-22.5L33.55-22.5Q31.35-22.5 29.97-20.25 28.6-18 28-14.8 27.4-11.6 27.4-8.65L27.4-8.65Q27.4-3.95 30.35-3.95L30.35-3.95ZM60.05-27.1Q61.05-27.1 62.2-26.75L62.2-26.75 60.3-20.85Q59.4-21.1 58.55-21.1L58.55-21.1Q56.65-21.1 55.3-19.07 53.95-17.05 52.84-13.2L52.84-13.2 51.05 0 45 0 48.7-26.45 53.9-26.45 53.65-21.85Q54.9-24.45 56.42-25.78 57.95-27.1 60.05-27.1L60.05-27.1ZM88.29-27.2Q90.54-27.2 91.92-25.55 93.29-23.9 93.29-21.05L93.29-21.05Q93.29-20.2 93.14-19.3L93.14-19.3 90.34 0 84.29 0 86.89-18.6Q86.99-19.5 86.99-19.85L86.99-19.85Q86.99-21.95 85.74-21.95L85.74-21.95Q84.69-21.95 83.62-20.4 82.54-18.85 81.09-15.85L81.09-15.85 78.79 0 72.74 0 75.34-18.6Q75.44-19.5 75.44-19.85L75.44-19.85Q75.44-21.95 74.19-21.95L74.19-21.95Q73.14-21.95 72.02-20.35 70.89-18.75 69.49-15.75L69.49-15.75 67.34 0 61.29 0 64.99-26.45 70.24-26.45 69.99-22.15Q71.44-24.55 73.07-25.88 74.69-27.2 76.74-27.2L76.74-27.2Q78.69-27.2 79.99-25.93 81.29-24.65 81.59-22.3L81.59-22.3Q83.14-24.7 84.72-25.95 86.29-27.2 88.29-27.2L88.29-27.2ZM100.84-34.55L117.24-34.55 115.84-29.8 106.44-29.8 104.94-19.25 113.29-19.25 112.54-14.5 104.29-14.5 102.24 0 95.94 0 100.84-34.55ZM129.49-27.15Q133.64-27.15 137.64-24.95L137.64-24.95 135.04-6.8Q134.89-5.9 134.89-5.25L134.89-5.25Q134.89-4.6 135.14-4.17 135.39-3.75 135.99-3.45L135.99-3.45 134.09 0.65Q130.09 0.15 129.39-3.25L129.39-3.25Q127.94-1.3 126.41-0.28 124.89 0.75 122.84 0.75L122.84 0.75Q119.59 0.75 117.76-1.75 115.94-4.25 115.94-8.5L115.94-8.5Q115.94-13.15 117.34-17.4 118.74-21.65 121.79-24.4 124.84-27.15 129.49-27.15L129.49-27.15ZM129.14-22.65Q126.79-22.65 125.21-20.55 123.64-18.45 122.86-15.18 122.09-11.9 122.09-8.4L122.09-8.4Q122.09-6 122.74-4.95 123.39-3.9 124.69-3.9L124.69-3.9Q125.89-3.9 126.91-4.88 127.94-5.85 129.19-7.75L129.19-7.75 131.19-22.25Q130.24-22.65 129.14-22.65L129.14-22.65ZM150.38-27.15Q152.78-27.15 154.78-26.3 156.78-25.45 158.28-23.9L158.28-23.9 155.53-20.55Q153.19-22.6 150.59-22.6L150.59-22.6Q148.99-22.6 148.06-21.75 147.13-20.9 147.13-19.5L147.13-19.5Q147.13-18.3 148.01-17.5 148.88-16.7 151.19-15.65L151.19-15.65Q153.88-14.45 155.21-12.8 156.53-11.15 156.53-8.45L156.53-8.45Q156.53-5.7 155.21-3.63 153.88-1.55 151.56-0.4 149.24 0.75 146.38 0.75L146.38 0.75Q141.13 0.75 137.59-3.15L137.59-3.15 140.88-6.45Q142.19-5.2 143.49-4.53 144.78-3.85 146.38-3.85L146.38-3.85Q148.34-3.85 149.36-5 150.38-6.15 150.38-7.7L150.38-7.7Q150.38-9.2 149.53-10.08 148.69-10.95 146.38-11.95L146.38-11.95Q143.59-13.15 142.34-14.73 141.09-16.3 141.09-18.85L141.09-18.85Q141.09-21.1 142.28-23 143.49-24.9 145.61-26.03 147.74-27.15 150.38-27.15L150.38-27.15ZM169.23-22L167.08-6.8Q167.03-6.55 167.03-6.1L167.03-6.1Q167.03-4.2 168.78-4.2L168.78-4.2Q169.38-4.2 169.93-4.4 170.48-4.6 171.33-5.05L171.33-5.05 172.83-1.1Q170.23 0.75 167.08 0.75L167.08 0.75Q164.18 0.75 162.58-0.9 160.98-2.55 160.98-5.45L160.98-5.45Q160.98-5.9 161.08-7L161.08-7 163.18-22 159.98-22 160.63-26.45 164.03-26.45 165.53-32.45 170.78-33.05 169.83-26.45 174.78-26.45 173.43-22 169.23-22Z" opacity="1" transform="matrix(1,0,0,1,0,0)" fill="#605fdc" class="wordmark-text-0" data-fill-palette-color="primary" id="text-0"></path></svg></g></svg></g></svg></g></svg></g><g><svg viewBox="0 0 179.9560258321244 179.95602583212437" height="179.95602583212437" width="179.9560258321244"><g><svg></svg></g><g id="icon-0"><svg viewBox="0 0 179.9560258321244 179.95602583212437" height="179.95602583212437" width="179.9560258321244"><g><path transform="scale(1.79956,1.79956)" d="M30 100c-16.569 0-30-13.431-30-30v-40c0-16.569 13.431-30 30-30h40c16.569 0 30 13.431 30 30v40c0 16.569-13.431 30-30 30z" fill="#ffffff" fill-rule="nonzero" stroke="none" stroke-width="1" stroke-linecap="butt" stroke-linejoin="miter" stroke-miterlimit="10" stroke-dasharray="" stroke-dashoffset="0" font-family="none" font-weight="none" font-size="none" text-anchor="none" style="mix-blend-mode: normal" data-fill-palette-color="accent"></path></g><g transform="matrix(1,0,0,1,42.55866185556621,35.991205166424876)"><svg viewBox="0 0 94.83870212099198 107.97361549927462" height="107.97361549927462" width="94.83870212099198"><g><svg xmlns="http://www.w3.org/2000/svg" xmlns:xlink="http://www.w3.org/1999/xlink" version="1.1" x="0" y="0" viewBox="13.5 9.1 62.97774609687687 71.7" enable-background="new 0 0 90 90" xml:space="preserve" height="107.97361549927462" width="94.83870212099198" class="icon-dxe-0" data-fill-palette-color="quaternary" id="dxe-0"><g fill="#6e62e5" data-fill-palette-color="quaternary"><g fill="#6e62e5" data-fill-palette-color="quaternary"><path fill="#6e62e5" d="M60.7 80.8H17.9C15.5 80.8 13.5 78.8 13.5 76.4V21.4C13.5 19 15.5 17 17.9 17H22.1C22.9 17 23.6 17.7 23.6 18.5S22.9 20 22.1 20H17.9C17.1 20 16.5 20.6 16.5 21.4V76.4C16.5 77.2 17.1 77.8 17.9 77.8H60.7C61.5 77.8 62.1 77.2 62.1 76.4V57.4C62.1 56.6 62.8 55.9 63.6 55.9S65.1 56.6 65.1 57.4V76.4C65.1 78.9 63.2 80.8 60.7 80.8" data-fill-palette-color="quaternary"></path></g><g fill="#6e62e5" data-fill-palette-color="quaternary"><path fill="#6e62e5" d="M63.6 26.9C62.8 26.9 62.1 26.2 62.1 25.4V21.4C62.1 20.6 61.5 20 60.7 20H56.5C55.7 20 55 19.3 55 18.5S55.7 17 56.5 17H60.7C63.1 17 65.1 19 65.1 21.4V25.4C65.1 26.2 64.5 26.9 63.6 26.9" data-fill-palette-color="quaternary"></path></g><g fill="#6e62e5" data-fill-palette-color="quaternary"><path fill="#6e62e5" d="M49.1 26.1H29.5C28 26.1 26.7 24.9 26.7 23.3V15.9C26.7 14.4 27.9 13.1 29.5 13.1H34C34.7 10.8 36.8 9.1 39.3 9.1S44 10.8 44.6 13.1H49C50.5 13.1 51.8 14.3 51.8 15.9V23.3C51.9 24.9 50.7 26.1 49.1 26.1M29.8 23.1H48.9V16.1H43.4C42.6 16.1 41.9 15.4 41.9 14.6 41.9 13.2 40.8 12.1 39.4 12.1S36.9 13.2 36.9 14.6C36.9 15.4 36.2 16.1 35.4 16.1H29.8z" data-fill-palette-color="quaternary"></path></g><g fill="#6e62e5" data-fill-palette-color="quaternary"><path fill="#6e62e5" d="M33.2 56.6H23.1V46.5H33.2zM26.1 53.6H30.2V49.5H26.1z" data-fill-palette-color="quaternary"></path></g><g fill="#6e62e5" data-fill-palette-color="quaternary"><path fill="#6e62e5" d="M45.5 53H39.1C38.3 53 37.6 52.3 37.6 51.5S38.3 50 39.1 50H45.5C46.3 50 47 50.7 47 51.5S46.3 53 45.5 53" data-fill-palette-color="quaternary"></path></g><g fill="#6e62e5" data-fill-palette-color="quaternary"><path fill="#6e62e5" d="M33.2 71.5H23.1V61.4H33.2zM26.1 68.5H30.2V64.4H26.1z" data-fill-palette-color="quaternary"></path></g><g fill="#6e62e5" data-fill-palette-color="quaternary"><path fill="#6e62e5" d="M33.2 41.7H23.1V31.6H33.2zM26.1 38.7H30.2V34.6H26.1z" data-fill-palette-color="quaternary"></path></g><g fill="#6e62e5" data-fill-palette-color="quaternary"><path fill="#6e62e5" d="M54 35.2H39C38.2 35.2 37.5 34.5 37.5 33.7S38.2 32.2 39 32.2H54C54.8 32.2 55.5 32.9 55.5 33.7S54.9 35.2 54 35.2" data-fill-palette-color="quaternary"></path></g><g fill="#6e62e5" data-fill-palette-color="quaternary"><path fill="#6e62e5" d="M50.1 41H39.1C38.3 41 37.6 40.3 37.6 39.5S38.3 38 39.1 38H50.2C51 38 51.7 38.7 51.7 39.5S51 41 50.1 41" data-fill-palette-color="quaternary"></path></g><g fill="#6e62e5" data-fill-palette-color="quaternary"><path fill="#6e62e5" d="M45.7 69.2C45.4 69.2 45.1 69.1 44.9 68.9 44.4 68.6 44.1 67.9 44.3 67.3L46.1 59.7C46.1 59.5 46.2 59.3 46.3 59.2L64.8 32.1C65.3 31.4 66.2 31.2 66.9 31.7S67.8 33.1 67.3 33.8L48.8 60.8 48 64.3 51 62.3 71 33 67.6 30.7C67.3 30.5 67 30.1 67 29.7 66.9 29.3 67 28.9 67.2 28.6L69.1 25.7C69.6 25 70.5 24.8 71.2 25.3L75.8 28.5C76.5 29 76.7 29.9 76.2 30.6S74.8 31.5 74.1 31L70.7 28.7 70.5 29 73.9 31.3C74.2 31.5 74.5 31.9 74.5 32.3 74.6 32.7 74.5 33.1 74.3 33.4L53.3 64.1C53.2 64.3 53.1 64.4 52.9 64.5L46.5 69C46.3 69.1 46 69.2 45.7 69.2" data-fill-palette-color="quaternary"></path></g></g></svg></g></svg></g></svg></g></svg></g></svg></g><defs></defs></svg><rect width="395.52" height="119.7342324225956" fill="none" stroke="none" visibility="hidden"></rect></g></svg></g></svg>